<svg width="1922" height="174" viewBox="0 0 1922 174" fill="none" xmlns="http://www.w3.org/2000/svg">
<path fill-rule="evenodd" clip-rule="evenodd" d="M1 0L65 24.1667C129 48.3333 257 96.6667 385 120.833C513 145 641 145 769 130.5C897 116 1025 87 1153 58C1281 29 1409 0 1537 0C1665 0 1793 29 1857 43.5L1921 58V174H1857C1793 174 1665 174 1537 174C1409 174 1281 174 1153 174C1025 174 897 174 769 174C641 174 513 174 385 174C257 174 129 174 65 174H1V0Z" fill="#90C8AB"/>
<path d="M1921 159L1384.58 42.9046C1292.79 23.039 1197.62 24.9977 1106.73 48.623L816.142 124.152C724.693 147.921 628.924 149.757 536.631 129.509L1 12" stroke="#329F5B" stroke-width="5"/>
</svg>
