<svg width="1922" height="189" viewBox="0 0 1922 189" fill="none" xmlns="http://www.w3.org/2000/svg">
<path fill-rule="evenodd" clip-rule="evenodd" d="M1921 126L1761 115.5C1601 105 1281 84 961 94.5C641 105 321 147 161 168L0.999971 189V0H161C321 0 641 0 961 0C1281 0 1601 0 1761 0H1921V126Z" fill="#90C8AB"/>
<path d="M1 77L216.077 143.946C285.554 165.572 359.615 167.836 430.284 150.495L825.342 53.5527C872.632 41.9484 921.643 39.0761 969.964 45.0769L1533.08 115.007C1557.15 117.996 1581.43 118.79 1605.65 117.379L1921 99" stroke="#329F5B" stroke-width="5"/>
</svg>
